<svg height="512pt" viewBox="0 -37 512.00056 512" width="512pt" xmlns="http://www.w3.org/2000/svg"><path d="m420.914062 92.722656-158.574218 42.492188c-3.515625.941406-7.132813-1.144532-8.074219-4.660156l-2.429687-9.0625c-.941407-3.515626 1.144531-7.132813 4.664062-8.074219l158.574219-42.492188c3.519531-.941406 7.132812 1.144531 8.074219 4.664063l2.429687 9.058594c.941406 3.519531-1.144531 7.132812-4.664063 8.074218zm0 0" fill="#e0e0e0"/><path d="m432.558594 114.300781c-8.152344-4.089843-14.164063-11.464843-16.523438-20.269531l-148.816406 39.875c2.359375 8.804688.839844 18.199219-4.171875 25.8125-2.535156 3.847656-3.300781 8.59375-2.109375 13.042969l61.292969 228.738281 179.964843-48.222656-61.292968-228.738282c-1.191406-4.449218-4.226563-8.175781-8.34375-10.238281zm0 0" fill="#66bb6a"/><path d="m440.902344 124.539062c-1.191406-4.449218-4.226563-8.175781-8.34375-10.242187-8.152344-4.085937-14.164063-11.460937-16.523438-20.265625l-17.972656 4.816406c1.296875 1.671875 2.28125 3.597656 2.839844 5.691406l40.480468 151.074219c11.492188 42.890625-13.960937 86.980469-56.851562 98.472657l-69.984375 18.75 7.679687 28.660156 179.96875-48.222656zm0 0" fill="#388e3c"/><path d="m322.226562 401.5 1.800782 6.710938c.574218 2.144531 1.617187 4.132812 3.050781 5.824218 2.972656 3.5 7.332031 5.390625 11.796875 5.28125 2.238281-.058594 4.402344.792969 5.894531 2.464844l8.179688 9.1875 137.375-36.808594 2.492187-12.046875c.453125-2.191406 1.902344-4.011719 3.867188-5.082031 3.925781-2.136719 6.753906-5.953125 7.578125-10.46875.398437-2.183594.304687-4.425781-.269531-6.570312l-1.796876-6.714844zm0 0" fill="#e0e0e0"/><path d="m309.820312 251.410156 128.046876-34.308594 9.820312 36.652344-128.046875 34.308594zm0 0" fill="#ef5350"/><path d="m325.777344 247.140625-2.324219-8.667969c-6.777344-25.308594 8.238281-51.316406 33.542969-58.097656l4.523437-1.210938c25.304688-6.78125 51.316407 8.234376 58.097657 33.539063l2.324218 8.667969zm9.820312 36.652344 2.324219 8.667969c6.78125 25.304687 32.789063 40.320312 58.097656 33.542968l4.523438-1.214844c25.304687-6.777343 40.320312-32.789062 33.542969-58.09375l-2.324219-8.671874zm0 0" fill="#ffca28"/><path d="m91.085938 44.8125 158.578124 42.488281c3.515626.941407 7.132813-1.144531 8.074219-4.660156l2.425781-9.0625c.945313-3.515625-1.144531-7.132813-4.660156-8.074219l-158.574218-42.492187c-3.519532-.941407-7.136719 1.144531-8.078126 4.664062l-2.425781 9.058594c-.945312 3.519531 1.144531 7.132813 4.660157 8.078125zm0 0" fill="#e0e0e0"/><path d="m79.445312 66.386719c8.148438-4.085938 14.160157-11.460938 16.519532-20.269531l148.816406 39.878906c-2.359375 8.804687-.839844 18.199218 4.175781 25.8125 2.53125 3.84375 3.296875 8.589844 2.105469 13.039062l-61.289062 228.738282-179.964844-48.222657 61.289062-228.738281c1.191406-4.445312 4.230469-8.175781 8.347656-10.238281zm0 0" fill="#66bb6a"/><path d="m248.886719 111.703125c-4.957031-7.597656-6.453125-16.945313-4.101563-25.707031l-33.621094-9.011719c.605469 2.566406.597657 5.261719-.101562 7.863281l-40.480469 151.074219c-11.492187 42.894531-55.578125 68.347656-98.472656 56.855469l-54.980469-14.734375-7.320312 27.324219 179.964844 48.21875 61.292968-228.738282c1.203125-4.492187.363282-9.253906-2.179687-13.144531zm0 0" fill="#388e3c"/><path d="m189.773438 353.585938-1.796876 6.714843c-.574218 2.140625-1.617187 4.132813-3.054687 5.824219-2.972656 3.5-7.332031 5.390625-11.796875 5.277344-2.238281-.054688-4.402344.796875-5.890625 2.46875l-8.183594 9.1875-137.371093-36.8125-2.492188-12.046875c-.453125-2.191407-1.902344-4.011719-3.871094-5.082031-3.921875-2.136719-6.75-5.953126-7.574218-10.46875-.398438-2.183594-.308594-4.425782.269531-6.570313l1.796875-6.714844zm0 0" fill="#e0e0e0"/><path d="m192.347656 240.15625-128.050781-34.308594 9.820313-36.648437 128.050781 34.308593zm0 0" fill="#ef5350"/><path d="m90.0625 173.460938 2.324219-8.667969c6.777343-25.308594 32.789062-40.324219 58.09375-33.542969l4.527343 1.210938c25.304688 6.78125 40.320313 32.792968 33.539063 58.097656l-2.320313 8.667968zm-9.820312 36.652343-2.324219 8.667969c-6.78125 25.304688 8.238281 51.316406 33.542969 58.097656l4.523437 1.210938c25.304687 6.78125 51.316406-8.238282 58.097656-33.542969l2.324219-8.667969zm0 0" fill="#ffca28"/><path d="m511.238281 358.050781c-5.734375-21.398437-52.484375-195.871093-63.089843-235.453125-1.746094-6.511718-6.203126-11.980468-12.226563-15.003906-4.074219-2.042969-7.445313-5.167969-9.800781-8.96875 5.484375-3.074219 8.410156-9.542969 6.703125-15.917969l-2.429688-9.058593c-2.015625-7.523438-9.734375-11.984376-17.261719-9.96875l-57.371093 15.375-1.683594-6.292969c-3.238281-12.085938-15.707031-19.285157-27.792969-16.042969-12.109375 3.246094-19.289062 15.671875-16.042968 27.789062l1.6875 6.292969c-12.257813 3.285157-56.4375 15.113281-57.582032 15.441407-1.945312-3.453126-3.003906-7.304688-3.128906-11.214844 6.167969.078125 12.03125-3.980469 13.765625-10.445313l2.425781-9.0625c2.011719-7.503906-2.457031-15.25-9.964844-17.261719l-57.371093-15.371093 1.6875-6.292969c3.242187-12.113281-3.929688-24.542969-16.046875-27.789062-12.082032-3.242188-24.550782 3.957031-27.789063 16.042968l-1.683593 6.292969-57.375-15.371094c-7.515626-2.019531-15.246094 2.4375-17.261719 9.964844l-2.425781 9.0625c-1.699219 6.335937 1.234374 12.832031 6.703124 15.914063-2.355468 3.800781-5.726562 6.929687-9.800781 8.972656-6.027343 3.023437-10.484375 8.492187-12.230469 15.003906-10.875 40.585938-56.65625 211.453125-63.085937 235.449219-2.609375 9.742187 1.554687 20.441406 10.964844 25.566406.0625.035156.101562.066406.125.089844l2.476562 11.972656c.574219 2.777344 2.664063 4.992187 5.40625 5.726563l137.375 36.8125c2.691407.722656 5.628907-.109376 7.542969-2.257813l8.128906-9.132813c.03125-.007812.085938-.023437.15625-.011718 10.808594.203125 19.679688-6.964844 22.277344-16.660156 2.738281-10.210938 8.320312-31.039063 10.480469-39.113282 1.074219-4.003906-1.300781-8.117187-5.300781-9.1875-4-1.070312-8.113282 1.300782-9.1875 5.304688l-6.742188 25.15625-165.476562-44.339844 59.351562-221.496094c.636719-2.375 2.265625-4.371094 4.464844-5.476562 7.785156-3.902344 14.003906-10.257813 17.761718-17.972656 15.992188 4.285156 119.40625 31.992187 135.722657 36.367187-.601563 8.558594 1.609375 17.171875 6.398437 24.445313 1.355469 2.058593 1.765625 4.597656 1.128906 6.976562l-43.550781 162.53125c-1.070312 4 1.304688 8.113281 5.304688 9.183594 3.996093 1.074218 8.113281-1.300782 9.1875-5.300782l39.613281-147.847656c1.953125.972656 4.148438 1.503906 6.410156 1.464844-.140625 4.464844-1.5 8.855469-4 12.65625-3.710937 5.632812-4.835937 12.59375-3.089844 19.105469.957032 3.578125 57.828126 215.8125 63.089844 235.453125 2.613282 9.765625 11.582032 16.910156 22.277344 16.660156.078125-.007812.125.003906.15625.011719l8.128906 9.132812c1.914063 2.148438 4.851563 2.980469 7.542969 2.257813l137.375-36.8125c2.738281-.730469 4.832031-2.949219 5.40625-5.726563l2.476563-11.972656c.261718-.242187 9.421874-4.445313 11.492187-15.800781.589844-3.25.453125-6.660156-.402344-9.851563zm-181.070312-286.84375c4.113281-1.101562 8.328125 1.355469 9.417969 5.4375l1.6875 6.289063-14.855469 3.980468-1.6875-6.292968c-1.097657-4.09375 1.324219-8.3125 5.4375-9.414063zm-157.753907-42.476562c1.097657-4.097657 5.320313-6.535157 9.417969-5.4375 4.113281 1.105469 6.535157 5.320312 5.4375 9.417969l-1.6875 6.292968-14.855469-3.980468zm8.144532 330.152343c-1.117188 3.203126-4.121094 5.128907-7.246094 5.019532-4.503906-.117188-8.761719 1.703125-11.679688 4.980468l-5.105468 5.734376-128.441406-34.417969-1.554688-7.515625c-.886719-4.296875-3.667969-7.996094-7.625-10.152344-2.789062-1.519531-4.390625-4.65625-3.761719-7.972656zm-84.695313-328.390624 156.824219 42.019531-1.960938 7.308593c-34.902343-9.351562-123.40625-33.0625-156.824218-42.019531zm320.277344 47.910156 1.957031 7.3125c-153.785156 41.203125 59.101563-15.835938-156.824218 42.019531l-1.957032-7.308594zm76.953125 292.042968c-3.957031 2.15625-6.734375 5.855469-7.625 10.148438l-1.550781 7.519531-128.441407 34.417969-5.105468-5.734375c-2.917969-3.273437-7.164063-5.058594-11.683594-4.980469-3.121094.082032-6.117188-1.796875-7.246094-5.023437l117.210938-31.402344c4-1.074219 6.375-5.1875 5.304687-9.1875-1.074219-4-5.191406-6.378906-9.1875-5.304687l-117.238281 31.414062-59.347656-221.492188c-.636719-2.378906-.226563-4.917968 1.125-6.976562 4.792968-7.273438 7-15.886719 6.398437-24.445312 16.324219-4.375 119.714844-32.078126 135.722657-36.367188 3.761718 7.714844 9.976562 14.066406 17.765624 17.972656 2.199219 1.105469 3.828126 3.101563 4.460938 5.476563l59.351562 221.496093-14.429687 3.867188c-4.003906 1.070312-6.375 5.183594-5.304687 9.183594 1.070312 4 5.183593 6.378906 9.183593 5.304687l14.402344-3.859375c.628906 3.320313-.976563 6.453125-3.765625 7.972656zm0 0"/><path d="m445.128906 215.15625c-1.078125-4.023438-5.21875-6.371094-9.1875-5.300781l-8.699218 2.332031-.382813-1.425781c-7.855469-29.324219-37.949219-46.707031-67.28125-38.84375l-4.523437 1.210937c-29.257813 7.839844-46.6875 38.019532-38.847657 67.28125l.382813 1.425782-8.699219 2.328124c-4 1.074219-6.375 5.1875-5.304687 9.1875l9.824218 36.652344c1.074219 4.015625 5.203125 6.375 9.183594 5.300782l8.699219-2.328126.382812 1.421876c7.851563 29.300781 37.933594 46.714843 67.28125 38.847656l4.527344-1.210938c29.257813-7.84375 46.683594-38.023437 38.84375-67.285156l-.382813-1.421875 8.699219-2.332031c4-1.070313 6.375-5.183594 5.304688-9.1875zm-114.429687 21.371094c-5.699219-21.269532 6.96875-43.210938 28.238281-48.910156l4.523438-1.210938c21.320312-5.710938 43.199218 6.917969 48.910156 28.238281l.382812 1.425781-81.671875 21.882813zm-11.679688 20.1875 113.5625-30.429688 5.9375 22.164063-113.5625 30.429687zm107.820313 11.917968c5.699218 21.273438-6.96875 43.210938-28.238282 48.914063l-4.523437 1.210937c-21.320313 5.710938-43.199219-6.917968-48.914063-28.238281l-.378906-1.425781 81.671875-21.882812zm0 0"/><path d="m109.519531 284.121094 4.523438 1.210937c29.324219 7.859375 59.421875-9.511719 67.28125-38.84375l.382812-1.425781 8.699219 2.332031c3.984375 1.070313 8.109375-1.289062 9.1875-5.304687l9.820312-36.648438c1.070313-4.003906-1.300781-8.113281-5.304687-9.1875l-8.699219-2.332031.382813-1.425781c7.839843-29.257813-9.585938-59.441406-38.847657-67.28125l-4.523437-1.210938c-29.253906-7.84375-59.441406 9.585938-67.28125 38.84375l-.382813 1.425782-8.699218-2.332032c-3.996094-1.074218-8.113282 1.304688-9.183594 5.304688l-9.824219 36.652344c-1.070312 4 1.304688 8.113281 5.304688 9.183593l8.699219 2.332031-.382813 1.425782c-7.835937 29.257812 9.585937 59.441406 38.847656 67.28125zm-30.097656-105.75 23.242187 6.230468c3.996094 1.074219 8.113282-1.300781 9.183594-5.304687 1.074219-4-1.300781-8.113281-5.300781-9.1875l-7.296875-1.953125.378906-1.425781c5.699219-21.269531 27.644532-33.933594 48.914063-28.238281l4.523437 1.210937c21.269532 5.699219 33.9375 27.644531 28.238282 48.914063l-.382813 1.421874-40.566406-10.867187c-4.003907-1.074219-8.113281 1.300781-9.1875 5.300781-1.070313 4 1.304687 8.113282 5.304687 9.1875l56.511719 15.144532-5.9375 22.160156-113.5625-30.429688zm87.796875 62.808594-.382812 1.425781c-5.710938 21.316406-27.585938 33.957031-48.910157 28.238281l-4.523437-1.210938c-21.269532-5.699218-33.9375-27.644531-28.238282-48.914062l.382813-1.421875zm0 0"/><path d="m232.710938 25.578125c.859374 4.046875 4.835937 6.644531 8.894531 5.78125 4.050781-.859375 6.640625-4.839844 5.78125-8.894531l-3.503907-16.519532c-.859374-4.050781-4.835937-6.640624-8.894531-5.78125-4.050781.859376-6.636719 4.84375-5.777343 8.894532zm0 0"/><path d="m279.597656 56.066406c.859375 4.042969 4.835938 6.640625 8.894532 5.78125l16.519531-3.503906c4.050781-.859375 6.640625-4.839844 5.78125-8.894531-.859375-4.050781-4.835938-6.640625-8.890625-5.78125l-16.519532 3.503906c-4.054687.859375-6.640624 4.839844-5.785156 8.894531zm0 0"/><path d="m265.71875 35.84375c3.492188 2.269531 8.128906 1.253906 10.375-2.199219l9.207031-14.160156c2.257813-3.472656 1.273438-8.117187-2.199219-10.375-3.472656-2.253906-8.121093-1.273437-10.378906 2.199219l-9.203125 14.160156c-2.257812 3.472656-1.273437 8.117188 2.199219 10.375zm0 0"/></svg>