<?xml version="1.0" encoding="iso-8859-1"?>
<!-- Generator: Adobe Illustrator 19.0.0, SVG Export Plug-In . SVG Version: 6.00 Build 0)  -->
<svg version="1.1" id="Capa_1" xmlns="http://www.w3.org/2000/svg" xmlns:xlink="http://www.w3.org/1999/xlink" x="0px" y="0px"
	 viewBox="0 0 512.1 512.1" style="enable-background:new 0 0 512.1 512.1;" xml:space="preserve">
<path style="fill:#2196F3;" d="M160.05,0h192c5.9,0,10.7,4.8,10.7,10.7v64c0,5.9-4.8,10.7-10.7,10.7h-192c-5.9,0-10.7-4.8-10.7-10.7
	v-64C149.35,4.8,154.15,0,160.05,0z"/>
<path style="fill:#CFD8DC;" d="M288.05,138.7V512H94.65c-5.1,0-9.2-4.8-9.2-10.7V138.7H288.05z"/>
<path style="fill:#B0BEC5;" d="M417.75,138.7v362.7c0,5.9-5.6,10.7-12.5,10.7h-113.2V138.7H417.75z"/>
<path style="fill:#90A4AE;" d="M426.75,138.7h-131l61.5-73.2c0.4,0.4,0.8,0.6,1.3,0.9c0.4,0.2,0.8,0.5,1.1,0.9l64,64
	c1.3,1.3,2.1,2.9,2.6,4.7c0.2,0.5,0.3,1,0.4,1.5C426.55,137.8,426.75,138.2,426.75,138.7z"/>
<path style="fill:#B0BEC5;" d="M357.15,65.5l-59.8,73.2h-212c0-0.4,0.2-0.9,0.2-1.3c0.1-0.5,0.3-1,0.4-1.5c0.4-1.8,1.3-3.4,2.6-4.7
	l64-64c1.9-2.1,4.6-3.2,7.5-3.2h192C353.85,64,355.65,64.6,357.15,65.5z"/>
<path d="M288.05,512h-192c-5.9,0-10.7-4.8-10.7-10.7V138.7c0-2.8,1.1-5.5,3.1-7.6l60.9-60.9V10.7c0-5.9,4.8-10.7,10.7-10.7h192
	c5.9,0,10.7,4.8,10.7,10.7v64c0,2.8-1.1,5.5-3.1,7.6l-60.9,60.9v358.3C298.75,507.2,293.95,512,288.05,512z M106.75,490.7h170.7
	v-352c0-2.8,1.1-5.5,3.1-7.6l60.9-60.9V21.3h-170.7v53.3c0,2.8-1.1,5.5-3.1,7.6l-60.9,60.9C106.75,143.1,106.75,490.7,106.75,490.7z
	"/>
<path d="M416.05,149.3h-320c-5.9,0-10.7-4.8-10.7-10.7s4.8-10.6,10.7-10.6h320c5.9,0,10.7,4.8,10.7,10.7S421.95,149.3,416.05,149.3z
	"/>
<path d="M416.05,512h-128c-5.9,0-10.7-4.8-10.7-10.7s4.8-10.7,10.7-10.7h117.3V143.1l-57.7-57.7h-187.6c-5.9,0-10.7-4.8-10.7-10.7
	s4.8-10.7,10.7-10.7h192c2.8,0,5.5,1.1,7.6,3.1l64,64c2,2,3.1,4.7,3.1,7.6v362.7C426.75,507.2,421.95,512,416.05,512z"/>
<g>
</g>
<g>
</g>
<g>
</g>
<g>
</g>
<g>
</g>
<g>
</g>
<g>
</g>
<g>
</g>
<g>
</g>
<g>
</g>
<g>
</g>
<g>
</g>
<g>
</g>
<g>
</g>
<g>
</g>
</svg>
